<?xml version="1.0" encoding="UTF-8" standalone="no"?>
<!-- Created with Inkscape (http://www.inkscape.org/) -->

<svg
   xmlns:dc="http://purl.org/dc/elements/1.1/"
   xmlns:cc="http://creativecommons.org/ns#"
   xmlns:rdf="http://www.w3.org/1999/02/22-rdf-syntax-ns#"
   xmlns:svg="http://www.w3.org/2000/svg"
   xmlns="http://www.w3.org/2000/svg"
   xmlns:sodipodi="http://sodipodi.sourceforge.net/DTD/sodipodi-0.dtd"
   xmlns:inkscape="http://www.inkscape.org/namespaces/inkscape"
   width="196"
   height="196"
   id="svg3195"
   version="1.1"
   inkscape:version="0.48.5 r10040"
   sodipodi:docname="greenwich.svg"
   inkscape:export-filename="/home/jasku/dev/Eclipse_workbench/Spongia2014/res/portrait/greenwich.png"
   inkscape:export-xdpi="89.950081"
   inkscape:export-ydpi="89.950081">
  <defs
     id="defs3197" />
  <sodipodi:namedview
     id="base"
     pagecolor="#ffffff"
     bordercolor="#666666"
     borderopacity="1.0"
     inkscape:pageopacity="0.0"
     inkscape:pageshadow="2"
     inkscape:zoom="2"
     inkscape:cx="188.24104"
     inkscape:cy="80.049058"
     inkscape:document-units="px"
     inkscape:current-layer="layer1"
     showgrid="false"
     inkscape:window-width="958"
     inkscape:window-height="1059"
     inkscape:window-x="0"
     inkscape:window-y="19"
     inkscape:window-maximized="0" />
  <metadata
     id="metadata3200">
    <rdf:RDF>
      <cc:Work
         rdf:about="">
        <dc:format>image/svg+xml</dc:format>
        <dc:type
           rdf:resource="http://purl.org/dc/dcmitype/StillImage" />
        <dc:title></dc:title>
      </cc:Work>
    </rdf:RDF>
  </metadata>
  <g
     inkscape:label="Layer 1"
     inkscape:groupmode="layer"
     id="layer1"
     transform="translate(0,-856.36215)">
    <g
       id="g3902"
       transform="matrix(-0.63669118,0,0,0.63669118,302.0427,777.04422)">
      <path
         sodipodi:nodetypes="cccccc"
         inkscape:connector-curvature="0"
         id="path3787"
         d="m 313.92857,345.21932 c -2.36512,3.20007 -6.40319,3.89072 -5.71057,11.67739 -23.89573,-16.20274 -41.44896,-35.34602 -58.69398,-55.40046 -10.75936,-41.33731 -8.96626,-124.98735 10.90401,-146.99121 l 6.71483,119.64286 c 15.59524,23.69047 47.54608,40.53441 46.78571,71.07142 z"
         style="fill:#eed503;fill-opacity:1;stroke:none" />
      <path
         sodipodi:nodetypes="cccc"
         inkscape:connector-curvature="0"
         id="path3803-8"
         d="m 288.59127,308.86031 c -1.65519,17.30334 5.0399,22.04812 -13.60981,36.20438 4.69899,-8.21232 13.22556,-19.00379 -4.35211,-26.62572 z"
         style="fill:#eed503;fill-opacity:1;stroke:none" />
      <path
         sodipodi:nodetypes="ccccc"
         inkscape:connector-curvature="0"
         id="path3866"
         d="m 262.38712,311.16275 6.81853,11.11168 c 11.62919,7.76329 26.66306,14.20932 40.4061,14.77348 l 1.6415,-9.72272 z"
         style="fill:#000000;fill-opacity:0.49468085;stroke:none" />
      <path
         sodipodi:nodetypes="ccccccccc"
         inkscape:connector-curvature="0"
         id="path2987"
         d="m 305,197.36218 c 41.52131,-9.81451 89.43362,-6.84703 136.42857,-5.71428 5.93087,48.56904 15.38781,97.52986 5,144.28571 -8.11501,34.92787 -28.08385,65.54526 -57.14286,92.85714 -31.19048,6.15069 -62.38095,3.02364 -93.57143,-2.14285 -16.60247,-15.55989 -7.10954,-18.97008 2.14286,-27.14286 18.24029,-22.48445 12.88806,-43.21949 11.42858,-69.28572 C 253.7307,332.09877 253.81708,300.17815 270,268.07647 c 7.08029,-24.33583 16.58034,-48.26836 35,-70.71429 z"
         style="fill:#dea480;fill-opacity:1;stroke:#000000;stroke-width:1px;stroke-linecap:butt;stroke-linejoin:miter;stroke-opacity:1" />
      <path
         sodipodi:nodetypes="ccccc"
         inkscape:connector-curvature="0"
         id="path3757"
         d="m 312.44291,384.2005 43.62852,1.73311 c 2.93536,-35.4276 -17.01461,-39.34587 -44.28572,-36.07143 0.15716,10.41851 -0.0441,19.4567 -2.38946,29.02204 -1.24888,5.14372 -2.81918,5.08327 3.04666,5.31628 z"
         style="fill:#0d0703;fill-opacity:1;stroke:#000000;stroke-width:1px;stroke-linecap:butt;stroke-linejoin:miter;stroke-opacity:1" />
      <path
         sodipodi:nodetypes="cccccccccc"
         inkscape:connector-curvature="0"
         id="path3767"
         d="m 311.31639,350.17989 2.08344,-0.3788 c -0.50296,8.93851 -1.82556,17.80251 -0.63135,26.89531 -0.0913,2.65521 0.77184,5.43298 7.00794,4.9245 12.05366,2.03446 24.59737,0.44924 36.96527,0.2841 l -0.18941,4.51412 c -14.35476,-0.29907 -28.82705,-0.56398 -42.98767,-1.5231 -6.67893,-0.43804 -6.1746,0.14251 -4.52675,-5.43263 2.50969,-8.55369 3.25857,-18.26602 2.40479,-28.65215 z"
         style="fill:#febd96;fill-opacity:1;stroke:none" />
      <path
         sodipodi:nodetypes="cccccccccc"
         inkscape:connector-curvature="0"
         id="path3767-5"
         d="m 311.29364,349.99048 2.08344,-0.3788 c -0.50296,8.93851 -1.82556,17.80251 -0.63135,26.89531 -0.0913,2.65521 0.77184,5.43298 7.00794,4.9245 12.05366,2.03446 24.59737,0.44924 36.96527,0.2841 l -0.18941,4.51412 c -14.51876,-0.0121 -29.54134,0.68603 -42.98767,-1.5231 -6.67893,-0.43804 -6.1746,0.14251 -4.52675,-5.43263 2.50969,-8.55369 3.25857,-18.26602 2.40479,-28.65215 z"
         style="fill:#000000;fill-opacity:0.49468085;stroke:none" />
      <path
         sodipodi:nodetypes="cccc"
         inkscape:connector-curvature="0"
         id="path3791"
         d="m 419.21331,348.03332 c -10.66646,22.00086 -22.438,44.92195 -20.45559,71.72083 19.35577,-19.04754 32.35749,-42.45215 43.43656,-67.17514 z"
         style="fill:#000000;fill-opacity:0.28723402;stroke:none" />
      <path
         sodipodi:nodetypes="cccccccccc"
         inkscape:connector-curvature="0"
         id="path3789-6"
         d="m 273.21839,244.58265 -10.92674,41.65404 c 9.59348,-7.4297 15.65582,-18.22168 20.88969,-28.95867 1.45338,21.82852 7.38733,32.29021 19.8241,46.65001 18.54075,-18.03548 30.59603,-38.65316 35.46939,-60.53259 13.63654,16.13264 15.33434,40.46276 24.53936,60.06816 16.34347,-16.78922 25.724,-37.57294 28.38518,-62.53291 -5.77155,58.68998 21.23124,96.44128 36.39763,142.91746 31.90987,-50.40657 35.26461,-128.85998 -32.76009,-151.02618 -64.49089,-20.323 -77.88804,-26.20016 -121.81852,11.76068 z"
         style="fill:#000000;fill-opacity:0.49468085;stroke:none" />
      <path
         sodipodi:nodetypes="cccc"
         inkscape:connector-curvature="0"
         id="path3803"
         d="m 403.41237,141.68645 c 14.71701,-9.24959 14.38936,-17.44897 36.98568,-11.31563 -9.3733,1.28993 -23.12576,1.12198 -18.43528,19.69798 z"
         style="fill:#eed503;fill-opacity:1;stroke:#000000;stroke-opacity:1" />
      <path
         sodipodi:nodetypes="cccc"
         inkscape:connector-curvature="0"
         id="path3803-2"
         d="m 412.94301,149.74828 c 8.38483,-9.52279 6.45696,-15.19394 23.54341,-15.58194 -6.29346,2.84459 -15.95405,5.57592 -8.82292,17.60622 z"
         style="fill:#eed503;fill-opacity:1;stroke:#000000;stroke-opacity:1" />
      <path
         sodipodi:nodetypes="cccc"
         inkscape:connector-curvature="0"
         id="path3803-1"
         d="m 434.75952,300.9366 c 10.63957,13.74573 7.51277,21.33258 30.84027,23.34228 -8.35834,-4.43404 -21.33013,-9.00474 -10.53876,-24.83555 z"
         style="fill:#eed503;fill-opacity:1;stroke:#000000;stroke-opacity:1" />
      <path
         sodipodi:nodetypes="cccc"
         inkscape:connector-curvature="0"
         id="path3803-3"
         d="m 436.0394,325.17156 c 6.99061,15.91468 2.11813,22.51742 24.26292,30.12133 -7.03438,-6.32771 -18.51151,-13.90623 -4.20484,-26.64937 z"
         style="fill:#eed503;fill-opacity:1;stroke:#000000;stroke-opacity:1" />
      <path
         sodipodi:nodetypes="cccccccccc"
         inkscape:connector-curvature="0"
         id="path3789"
         d="m 260.13393,154.81754 2.78077,128.42667 c 10.27716,-7.95918 15.04986,-20.09415 20.65673,-31.59631 1.55695,23.38413 5.42692,34.97398 18.75,50.35714 19.86206,-19.32079 30.67219,-38.34704 35.89286,-61.78572 14.60835,17.28234 15.85326,39.71171 25.71428,60.71429 16.16911,-18.177 26.79203,-37.18982 29.64286,-63.92857 -6.18286,62.87254 20.44874,101.78382 36.69597,151.57214 34.18394,-53.99882 77.18063,-222.61257 4.30812,-246.35845 C 365.48866,120.4474 307.19513,114.1514 260.13393,154.81754 z"
         style="fill:#eed503;fill-opacity:1;stroke:none" />
      <path
         sodipodi:nodetypes="cc"
         inkscape:connector-curvature="0"
         id="path3797"
         d="m 305.89286,330.04076 c 8.90551,1.20387 18.16601,-0.0965 25.17857,-2.67858"
         style="fill:none;stroke:#000000;stroke-width:1px;stroke-linecap:butt;stroke-linejoin:miter;stroke-opacity:1" />
      <path
         sodipodi:nodetypes="cccc"
         inkscape:connector-curvature="0"
         id="path3799"
         d="m 309.19643,330.39789 1.78571,17.05358 c 7.30978,-2.37029 12.32007,-12.78634 18.48215,-19.64286 -6.00178,1.5989 -12.61305,3.11571 -20.26786,2.58928 z"
         style="fill:#000000;fill-opacity:0.28723402;stroke:none" />
      <path
         sodipodi:nodetypes="ccccccccccccsc"
         inkscape:connector-curvature="0"
         id="path3801"
         d="m 307.64794,383.49674 c 0.8627,0.92211 2.39376,1.06411 4.05298,1.08319 -6.33803,8.13495 -14.53905,16.76439 -18.6159,25.67911 -1.53814,2.80796 -1.5638,4.76845 0.51246,7.0164 2.78699,2.97714 7.15549,5.10742 10.90379,6.73273 6.47612,-0.59089 7.5713,-5.40788 10.16248,-8.32973 0.82993,-0.22152 1.40268,0.19991 1.89821,0.8144 -1.76354,2.31469 -5.5437,5.63037 -5.28766,8.25576 26.85347,10.72848 54.52274,5.03768 79.12748,2.94841 l -2.99106,1.71874 c -29.17351,4.91309 -60.08927,2.85719 -91.875,-2.67857 -5.17255,-5.00906 -9.92785,-10.12375 -8.57143,-16.78571 2.34605,-1.80293 3.37682,-4.33867 5.57758,-6.12118 6.93897,-5.6202 12.36552,-12.62322 15.10607,-20.33355 z"
         style="fill:#000000;fill-opacity:0.28723402;stroke:none" />
      <path
         sodipodi:nodetypes="cccccccc"
         inkscape:connector-curvature="0"
         id="path3886"
         d="m 310.53572,348.74611 c -1.82754,2.3654 -2.79741,5.00164 -2.36608,8.08036 -8.44613,-6.36412 -17.03805,-12.64493 -24.6875,-19.46429 -1.57441,2.61713 -5.26334,5.08323 -8.39285,7.58929 2.19231,-3.42111 4.64565,-6.82213 5.35714,-10.35715 -10.76269,-10.06874 -20.92538,-21.43745 -30.98214,-33.03571 -9.74616,-61.20666 -10.21354,-113.9414 10.90253,-146.9695 46.97678,-38.40085 99.02115,-32.81891 151.64211,-19.4814"
         style="fill:none;stroke:#000000;stroke-width:1px;stroke-linecap:butt;stroke-linejoin:miter;stroke-opacity:1" />
      <path
         sodipodi:nodetypes="cc"
         inkscape:connector-curvature="0"
         id="path3888"
         d="m 427.03125,139.572 c 67.77579,18.03557 48.02654,118.42731 31.71875,180.91518"
         style="fill:none;stroke:#000000;stroke-width:1px;stroke-linecap:butt;stroke-linejoin:miter;stroke-opacity:1" />
      <path
         sodipodi:nodetypes="cc"
         inkscape:connector-curvature="0"
         id="path3890"
         d="m 458.39286,322.94254 -7.50001,22.72321"
         style="fill:none;stroke:#000000;stroke-width:1px;stroke-linecap:butt;stroke-linejoin:miter;stroke-opacity:1" />
      <path
         sodipodi:nodetypes="cccccccc"
         inkscape:connector-curvature="0"
         id="path3892"
         d="m 449.03953,349.85135 c -4.7994,13.3481 -11.35811,26.3334 -18.68239,38.67155 -19.46699,-48.91591 -42.29021,-97.14814 -37.02899,-151.10128 -3.27635,24.62096 -12.1301,46.16793 -29.29443,63.13453 -7.48154,-15.92741 -10.46302,-39.35049 -25.63262,-60.23035 -7.76695,30.61614 -21.67598,46.53515 -35.98668,61.49304 -8.00006,-10.61708 -16.77158,-18.53405 -18.81409,-50.00255 -5.9852,11.12936 -9.97547,23.80959 -20.17149,31.61462"
         style="fill:none;stroke:#000000;stroke-width:1px;stroke-linecap:butt;stroke-linejoin:miter;stroke-opacity:1" />
      <path
         sodipodi:nodetypes="ccccc"
         inkscape:connector-curvature="0"
         id="path3894"
         d="m 302.5,301.29075 c -11.14415,-21.169 -15.0278,-50.65759 -16.96429,-75.17857 -2.4294,11.46311 -0.45208,21.49105 -22.14285,57.14286 9.22719,-7.73696 14.02473,-20.53636 20.17857,-31.78572 1.67054,27.33479 9.72708,39.90196 18.92857,49.82143 z"
         style="fill:#000000;fill-opacity:0.25531915;stroke:none" />
      <path
         sodipodi:nodetypes="ccccccccccccc"
         inkscape:connector-curvature="0"
         id="path3896"
         d="M 363.90746,300.05107 C 378.55885,268.16881 386.9405,245.7707 395,212.00504 c 6.20419,33.49088 15.51107,69.61793 33.57143,86.98441 12.4429,-13.97612 29.31535,-41.56792 45,-50.91298 -4.88033,23.67053 -7.582,46.97795 -15,71.07143 -0.24018,2.54036 2.9568,3.09079 4.73214,4.46428 l -5.44643,-0.53571 -7.34375,22.81249 7.83483,8.23662 -9.7118,-4.41134 c -1.49755,11.85037 -10.55766,25.55868 -18.27928,38.71937 -16.62045,-47.35844 -43.75387,-87.57599 -37.14285,-150.71429 -9.76894,50.54016 -19.53789,50.19322 -29.30683,62.33175 z"
         style="fill:#000000;fill-opacity:0.25531915;stroke:none" />
      <path
         sodipodi:nodetypes="ccccc"
         inkscape:connector-curvature="0"
         id="path3898"
         d="m 302.28815,301.5663 c 17.46845,-26.01449 29.25006,-54.08257 34.59772,-84.47401 13.23645,26.75519 25.6881,53.68477 27.02159,83.08505 -7.99713,-20.03607 -10.00314,-37.79476 -25.78691,-60.28899 -2.83977,25.82803 -18.89111,44.0758 -35.8324,61.67795 z"
         style="fill:#000000;fill-opacity:0.25531915;stroke:none" />
      <path
         sodipodi:nodetypes="cccc"
         inkscape:connector-curvature="0"
         id="path3900"
         d="m 434.64286,134.32647 c -2.95761,-0.67543 -1.72394,-2.09179 -16.69643,5.98214 3.8723,2.93991 4.19404,0.39168 9.46429,0.53571 3.96583,-5.69688 0.69441,-2.53441 7.23214,-6.51785 z"
         style="fill:#000000;fill-opacity:0.25531915;stroke:none" />
    </g>
  </g>
</svg>
